<svg width="96" height="64" viewBox="0 0 96 64" fill="none" xmlns="http://www.w3.org/2000/svg">
<g clip-path="url(#clip0_455_3357)">
<path fill-rule="evenodd" clip-rule="evenodd" d="M68.06 17.8306H21.8816C18.654 17.8306 16.0034 20.1101 16.0034 22.9206V46.1848C16.0034 48.9796 18.636 51.2748 21.8816 51.2748H68.06C70.4762 51.2748 72.4416 49.5729 72.4416 47.4807C72.4416 38.862 72.4416 30.2434 72.4416 21.6247C72.4416 19.5324 70.4762 17.8306 68.06 17.8306Z" fill="#7A5E54"/>
<path fill-rule="evenodd" clip-rule="evenodd" d="M29.058 0H66.6715L80.0147 11.554V60.7992C80.0147 62.5636 78.3558 64 76.3182 64H29.0761C27.0385 64 25.3796 62.5636 25.3796 60.7992V3.21639C25.3796 1.45206 27.0385 0.0156136 29.0761 0.0156136L29.058 0Z" fill="#E3D7D3"/>
<path fill-rule="evenodd" clip-rule="evenodd" d="M79.9965 11.5538H68.5288C67.501 11.5538 66.6536 10.82 66.6536 9.93V0L79.9965 11.5538Z" fill="#C2BCBA"/>
<path fill-rule="evenodd" clip-rule="evenodd" d="M68.06 51.2595H21.8816C18.654 51.2595 16.0034 48.9799 16.0034 46.1695V22.9053C16.0034 25.7157 18.618 28.0109 21.8816 28.0109H68.06C70.4762 28.0109 72.4416 29.7128 72.4416 31.805V47.481C72.4416 49.5732 70.4762 51.2751 68.06 51.2751V51.2595Z" fill="#8E6E63"/>
<path fill-rule="evenodd" clip-rule="evenodd" d="M60.9015 18.0807L46.1879 25.4347C45.0339 26.0124 43.6094 25.2942 43.6094 24.1388V9.41519C43.6094 8.25979 45.0339 7.55718 46.1879 8.11926L60.9015 15.4733C62.0374 16.051 62.0374 17.4718 60.9015 18.0495V18.0807Z" fill="#8E6E63"/>
<path d="M27.8501 31.8984H31.8711L33.6562 42.9841H33.7103L35.4954 31.8984H39.5164V47.3871H36.8658V35.6613H36.8117L34.7741 47.3871H32.4301L30.3925 35.6613H30.3384V47.3871H27.8862V31.8984H27.8501ZM41.608 31.8984H44.4209V38.4249L47.9911 31.8984H50.804L47.4502 37.5818L50.8581 47.3871H47.919L45.5389 40.4859L44.4209 42.4532V47.3871H41.608V31.8984ZM51.4532 31.8984H54.2841L56.1233 43.9209H56.1774L58.0166 31.8984H60.5951L57.8904 47.3871H54.1579L51.4532 31.8984Z" fill="#F7F7F7"/>
</g>
<defs>
<clipPath id="clip0_455_3357">
<rect width="64" height="64" fill="white" transform="translate(16)"/>
</clipPath>
</defs>
</svg>
