<svg width="96" height="64" viewBox="0 0 96 64" fill="none" xmlns="http://www.w3.org/2000/svg">
<path d="M55.2422 22.416C55.2422 24.4141 53.6226 26.0342 51.6245 26.0342H28.7471C26.7485 26.0342 25.1289 27.6538 25.1289 29.6523V60.2568C25.1289 62.2554 26.7485 63.875 28.7471 63.875H75.2368C77.2354 63.875 78.855 62.2554 78.855 60.2568V22.416C78.855 20.4175 77.2354 18.7979 75.2368 18.7979H58.8604C56.8623 18.7979 55.2422 20.4175 55.2422 22.416Z" fill="#E58E13"/>
<path d="M71.1011 22.416V60.2568C71.1011 62.2554 69.4815 63.875 67.4829 63.875H20.9932C18.9961 63.875 17.375 62.2554 17.375 60.2568V29.6519C17.375 27.6533 18.9961 26.0337 20.9932 26.0337H43.8711C45.8691 26.0337 47.4888 24.4141 47.4888 22.416C47.4888 20.4175 49.1084 18.7979 51.1069 18.7979H67.4829C69.4815 18.7979 71.1011 20.4175 71.1011 22.416Z" fill="#E58E13"/>
<path d="M69.5337 22.416V60.2568C69.5337 62.2554 67.9141 63.875 65.9155 63.875H20.9932C18.9961 63.875 17.375 62.2554 17.375 60.2568V29.6519C17.375 27.6533 18.9961 26.0337 20.9932 26.0337H43.8711C45.8691 26.0337 47.4888 24.4141 47.4888 22.416C47.4888 20.4175 49.1084 18.7979 51.1069 18.7979H65.9155C67.9141 18.7979 69.5337 20.4175 69.5337 22.416Z" fill="#F7D360"/>
<path d="M65.0522 38.5845H47.373C46.6284 38.5845 46.0254 37.981 46.0254 37.2368V32.6836C46.0254 31.9395 46.6284 31.3359 47.373 31.3359H65.0518C65.7964 31.3359 66.3994 31.9395 66.3994 32.6836V37.2368C66.3999 37.9814 65.7964 38.5845 65.0522 38.5845Z" fill="#FC5F61"/>
</svg>
