<svg width="20" height="20" viewBox="0 0 20 20" fill="none" xmlns="http://www.w3.org/2000/svg">
<path d="M10 7.08317C10 6.62293 9.62692 6.24984 9.16669 6.24984C8.70645 6.24984 8.33335 6.62293 8.33335 7.08317V11.2498C8.33335 11.7101 8.70645 12.0832 9.16669 12.0832H11.6667C12.1269 12.0832 12.5 11.7101 12.5 11.2498C12.5 10.7896 12.1269 10.4165 11.6667 10.4165H10V7.08317Z" fill="#1D2739"/>
<path fill-rule="evenodd" clip-rule="evenodd" d="M10 1.6665C5.39765 1.6665 1.66669 5.39746 1.66669 9.99984C1.66669 14.6022 5.39765 18.3332 10 18.3332C14.6024 18.3332 18.3334 14.6022 18.3334 9.99984C18.3334 5.39746 14.6024 1.6665 10 1.6665ZM3.33335 9.99984C3.33335 6.31794 6.31812 3.33317 10 3.33317C13.6819 3.33317 16.6667 6.31794 16.6667 9.99984C16.6667 13.6817 13.6819 16.6665 10 16.6665C6.31812 16.6665 3.33335 13.6817 3.33335 9.99984Z" fill="#1D2739"/>
</svg>
