<svg width="14" height="20" viewBox="0 0 14 20" fill="none" xmlns="http://www.w3.org/2000/svg">
<path d="M12.8337 8.3335V10.0002C12.8337 11.5473 12.2191 13.031 11.1251 14.125C10.0312 15.2189 8.54742 15.8335 7.00033 15.8335M7.00033 15.8335C5.45323 15.8335 3.9695 15.2189 2.87554 14.125C1.78157 13.031 1.16699 11.5473 1.16699 10.0002V8.3335M7.00033 15.8335V19.1668M3.66699 19.1668H10.3337M7.00033 0.833496C6.33728 0.833496 5.7014 1.09689 5.23256 1.56573C4.76372 2.03457 4.50033 2.67045 4.50033 3.3335V10.0002C4.50033 10.6632 4.76372 11.2991 5.23256 11.7679C5.7014 12.2368 6.33728 12.5002 7.00033 12.5002C7.66337 12.5002 8.29925 12.2368 8.76809 11.7679C9.23693 11.2991 9.50033 10.6632 9.50033 10.0002V3.3335C9.50033 2.67045 9.23693 2.03457 8.76809 1.56573C8.29925 1.09689 7.66337 0.833496 7.00033 0.833496Z" stroke="#1D2739" stroke-width="1.5" stroke-linecap="round" stroke-linejoin="round"/>
</svg>
