<svg width="20" height="20" viewBox="0 0 20 20" fill="none" xmlns="http://www.w3.org/2000/svg">
<g clip-path="url(#clip0_374_7231)">
<path d="M0.833008 0.833573L19.1663 19.1669M7.49967 7.50024V10.0002C7.50011 10.4944 7.64697 10.9773 7.9217 11.388C8.19643 11.7987 8.58672 12.1188 9.04326 12.3079C9.49981 12.4969 10.0021 12.5464 10.4868 12.4501C10.9715 12.3538 11.4167 12.1161 11.7663 11.7669M12.4997 7.78357V3.33357C12.5003 2.7136 12.2705 2.11551 11.855 1.65541C11.4394 1.19531 10.8678 0.906024 10.2509 0.843717C9.63408 0.781411 9.0161 0.950525 8.51694 1.31823C8.01777 1.68593 7.67305 2.226 7.54967 2.83357M14.1663 14.1252C13.3528 14.9556 12.3098 15.524 11.171 15.7574C10.0322 15.9909 8.8497 15.8788 7.77509 15.4355C6.70047 14.9922 5.78281 14.238 5.13982 13.2695C4.49682 12.3011 4.15784 11.1627 4.16634 10.0002V8.33357M15.833 8.33357V10.0002C15.8327 10.3439 15.802 10.6869 15.7413 11.0252M9.99967 15.8336V19.1669M6.66634 19.1669H13.333" stroke="#D42620" stroke-width="1.5" stroke-linecap="round" stroke-linejoin="round"/>
</g>
<defs>
<clipPath id="clip0_374_7231">
<rect width="20" height="20" fill="white"/>
</clipPath>
</defs>
</svg>
