<svg width="12" height="11" viewBox="0 0 12 11" fill="none" xmlns="http://www.w3.org/2000/svg">
<path d="M6.58333 0.833333C6.58333 0.511167 6.32217 0.25 6 0.25C5.67783 0.25 5.41667 0.511167 5.41667 0.833333V4.91667H1.33333C1.01117 4.91667 0.75 5.17783 0.75 5.5C0.75 5.82217 1.01117 6.08333 1.33333 6.08333H5.41667V10.1667C5.41667 10.4888 5.67783 10.75 6 10.75C6.32217 10.75 6.58333 10.4888 6.58333 10.1667V6.08333H10.6667C10.9888 6.08333 11.25 5.82217 11.25 5.5C11.25 5.17783 10.9888 4.91667 10.6667 4.91667H6.58333V0.833333Z" fill="#006C38"/>
</svg>
