<svg width="20" height="20" viewBox="0 0 20 20" fill="none" xmlns="http://www.w3.org/2000/svg">
<g clip-path="url(#clip0_455_639)">
<path d="M9.99998 12.5002C11.3807 12.5002 12.5 11.3809 12.5 10.0002C12.5 8.61945 11.3807 7.50016 9.99998 7.50016C8.61927 7.50016 7.49998 8.61945 7.49998 10.0002C7.49998 11.3809 8.61927 12.5002 9.99998 12.5002Z" stroke="#1D2739" stroke-width="1.5" stroke-linecap="round" stroke-linejoin="round"/>
<path d="M16.1666 12.5002C16.0557 12.7515 16.0226 13.0303 16.0716 13.3007C16.1207 13.571 16.2495 13.8204 16.4416 14.0168L16.4916 14.0668C16.6466 14.2216 16.7695 14.4054 16.8534 14.6078C16.9373 14.8101 16.9805 15.027 16.9805 15.246C16.9805 15.465 16.9373 15.6819 16.8534 15.8842C16.7695 16.0866 16.6466 16.2704 16.4916 16.4252C16.3369 16.5801 16.153 16.7031 15.9507 16.7869C15.7484 16.8708 15.5315 16.914 15.3125 16.914C15.0935 16.914 14.8766 16.8708 14.6742 16.7869C14.4719 16.7031 14.2881 16.5801 14.1333 16.4252L14.0833 16.3752C13.8869 16.183 13.6375 16.0542 13.3671 16.0052C13.0968 15.9561 12.818 15.9892 12.5666 16.1002C12.3202 16.2058 12.11 16.3812 11.9619 16.6048C11.8138 16.8283 11.7344 17.0903 11.7333 17.3585V17.5002C11.7333 17.9422 11.5577 18.3661 11.2452 18.6787C10.9326 18.9912 10.5087 19.1668 10.0666 19.1668C9.62462 19.1668 9.2007 18.9912 8.88813 18.6787C8.57557 18.3661 8.39998 17.9422 8.39998 17.5002V17.4252C8.39353 17.1493 8.30424 16.8818 8.14374 16.6574C7.98323 16.433 7.75893 16.2621 7.49998 16.1668C7.24863 16.0559 6.96982 16.0228 6.69949 16.0718C6.42916 16.1208 6.17971 16.2497 5.98331 16.4418L5.93331 16.4918C5.77852 16.6468 5.59471 16.7697 5.39238 16.8536C5.19005 16.9375 4.97317 16.9806 4.75415 16.9806C4.53512 16.9806 4.31824 16.9375 4.11591 16.8536C3.91358 16.7697 3.72977 16.6468 3.57498 16.4918C3.42002 16.337 3.29709 16.1532 3.21321 15.9509C3.12934 15.7486 3.08617 15.5317 3.08617 15.3127C3.08617 15.0936 3.12934 14.8768 3.21321 14.6744C3.29709 14.4721 3.42002 14.2883 3.57498 14.1335L3.62498 14.0835C3.81709 13.8871 3.94597 13.6376 3.99498 13.3673C4.044 13.097 4.01091 12.8182 3.89998 12.5668C3.79434 12.3204 3.61894 12.1101 3.39537 11.9621C3.17179 11.814 2.9098 11.7346 2.64165 11.7335H2.49998C2.05795 11.7335 1.63403 11.5579 1.32147 11.2453C1.00891 10.9328 0.833313 10.5089 0.833313 10.0668C0.833313 9.6248 1.00891 9.20088 1.32147 8.88832C1.63403 8.57576 2.05795 8.40016 2.49998 8.40016H2.57498C2.85081 8.39371 3.11832 8.30443 3.34273 8.14392C3.56714 7.98341 3.73808 7.75911 3.83331 7.50016C3.94424 7.24882 3.97733 6.97 3.92832 6.69967C3.8793 6.42934 3.75043 6.17989 3.55831 5.9835L3.50831 5.9335C3.35335 5.77871 3.23042 5.59489 3.14655 5.39256C3.06267 5.19023 3.0195 4.97335 3.0195 4.75433C3.0195 4.5353 3.06267 4.31843 3.14655 4.1161C3.23042 3.91377 3.35335 3.72995 3.50831 3.57516C3.6631 3.4202 3.84692 3.29727 4.04925 3.2134C4.25158 3.12952 4.46845 3.08635 4.68748 3.08635C4.90651 3.08635 5.12338 3.12952 5.32571 3.2134C5.52804 3.29727 5.71186 3.4202 5.86665 3.57516L5.91665 3.62516C6.11305 3.81728 6.36249 3.94615 6.63282 3.99517C6.90315 4.04418 7.18197 4.01109 7.43331 3.90016H7.49998C7.74645 3.79453 7.95666 3.61913 8.10472 3.39555C8.25279 3.17198 8.33224 2.90998 8.33331 2.64183V2.50016C8.33331 2.05814 8.50891 1.63421 8.82147 1.32165C9.13403 1.00909 9.55795 0.833496 9.99998 0.833496C10.442 0.833496 10.8659 1.00909 11.1785 1.32165C11.4911 1.63421 11.6666 2.05814 11.6666 2.50016V2.57516C11.6677 2.84332 11.7472 3.10531 11.8952 3.32888C12.0433 3.55246 12.2535 3.72786 12.5 3.8335C12.7513 3.94443 13.0301 3.97752 13.3005 3.9285C13.5708 3.87948 13.8202 3.75061 14.0166 3.5585L14.0666 3.5085C14.2214 3.35354 14.4052 3.2306 14.6076 3.14673C14.8099 3.06286 15.0268 3.01968 15.2458 3.01968C15.4648 3.01968 15.6817 3.06286 15.884 3.14673C16.0864 3.2306 16.2702 3.35354 16.425 3.5085C16.5799 3.66328 16.7029 3.8471 16.7867 4.04943C16.8706 4.25176 16.9138 4.46864 16.9138 4.68766C16.9138 4.90669 16.8706 5.12357 16.7867 5.3259C16.7029 5.52823 16.5799 5.71204 16.425 5.86683L16.375 5.91683C16.1829 6.11323 16.054 6.36268 16.005 6.633C15.956 6.90333 15.989 7.18215 16.1 7.4335V7.50016C16.2056 7.74664 16.381 7.95684 16.6046 8.10491C16.8282 8.25297 17.0902 8.33243 17.3583 8.3335H17.5C17.942 8.3335 18.3659 8.50909 18.6785 8.82165C18.991 9.13421 19.1666 9.55813 19.1666 10.0002C19.1666 10.4422 18.991 10.8661 18.6785 11.1787C18.3659 11.4912 17.942 11.6668 17.5 11.6668H17.425C17.1568 11.6679 16.8948 11.7474 16.6713 11.8954C16.4477 12.0435 16.2723 12.2537 16.1666 12.5002Z" stroke="#1D2739" stroke-width="1.5" stroke-linecap="round" stroke-linejoin="round"/>
</g>
<defs>
<clipPath id="clip0_455_639">
<rect width="20" height="20" fill="white"/>
</clipPath>
</defs>
</svg>
