<svg width="23" height="24" viewBox="0 0 23 24" fill="none" xmlns="http://www.w3.org/2000/svg">
<rect y="0.5" width="23" height="23" rx="4" fill="#F0F2F5"/>
<path fill-rule="evenodd" clip-rule="evenodd" d="M6.8 5.5H6.75C6.521 5.5 6.324 5.5 6.15 5.541C5.88064 5.60536 5.63435 5.74305 5.43843 5.93879C5.24251 6.13453 5.10461 6.38069 5.04 6.65C5 6.824 5 7.02 5 7.25V9.75C5 9.979 5 10.176 5.041 10.35C5.10536 10.6194 5.24305 10.8656 5.43879 11.0616C5.63453 11.2575 5.88069 11.3954 6.15 11.46C6.324 11.5 6.52 11.5 6.75 11.5H9.25C9.479 11.5 9.676 11.5 9.85 11.459C10.1194 11.3946 10.3656 11.257 10.5616 11.0612C10.7575 10.8655 10.8954 10.6193 10.96 10.35C11 10.176 11 9.98 11 9.75V7.25C11 7.021 11 6.824 10.959 6.65C10.8946 6.38064 10.757 6.13435 10.5612 5.93843C10.3655 5.74251 10.1193 5.60461 9.85 5.54C9.676 5.5 9.48 5.5 9.25 5.5H6.8ZM6.383 6.514C6.426 6.504 6.493 6.5 6.8 6.5H9.2C9.508 6.5 9.574 6.503 9.617 6.514C9.70683 6.53548 9.78895 6.58143 9.85426 6.64674C9.91957 6.71205 9.96552 6.79417 9.987 6.884C9.997 6.926 10 6.992 10 7.3V9.7C10 10.008 9.997 10.074 9.986 10.117C9.96452 10.2068 9.91857 10.289 9.85326 10.3543C9.78795 10.4196 9.70583 10.4655 9.616 10.487C9.575 10.496 9.509 10.5 9.2 10.5H6.8C6.492 10.5 6.426 10.497 6.383 10.486C6.29317 10.4645 6.21105 10.4186 6.14574 10.3533C6.08043 10.288 6.03448 10.2058 6.013 10.116C6.004 10.075 6 10.009 6 9.7V7.3C6 6.992 6.003 6.926 6.014 6.883C6.03548 6.79317 6.08143 6.71105 6.14674 6.64574C6.21205 6.58043 6.29417 6.53448 6.384 6.513M13.8 5.5H13.75C13.521 5.5 13.324 5.5 13.15 5.541C12.8806 5.60536 12.6344 5.74305 12.4384 5.93879C12.2425 6.13453 12.1046 6.38069 12.04 6.65C12 6.824 12 7.02 12 7.25V9.75C12 9.979 12 10.176 12.041 10.35C12.1054 10.6194 12.243 10.8656 12.4388 11.0616C12.6345 11.2575 12.8807 11.3954 13.15 11.46C13.324 11.5 13.52 11.5 13.75 11.5H16.25C16.479 11.5 16.676 11.5 16.85 11.459C17.1194 11.3946 17.3657 11.257 17.5616 11.0612C17.7575 10.8655 17.8954 10.6193 17.96 10.35C18 10.176 18 9.98 18 9.75V7.25C18 7.021 18 6.824 17.959 6.65C17.8946 6.38064 17.757 6.13435 17.5612 5.93843C17.3655 5.74251 17.1193 5.60461 16.85 5.54C16.676 5.5 16.48 5.5 16.25 5.5H13.8ZM13.383 6.514C13.426 6.504 13.493 6.5 13.8 6.5H16.2C16.508 6.5 16.574 6.503 16.617 6.514C16.7068 6.53548 16.789 6.58143 16.8543 6.64674C16.9196 6.71205 16.9655 6.79417 16.987 6.884C16.997 6.926 17 6.992 17 7.3V9.7C17 10.008 16.996 10.074 16.986 10.117C16.9645 10.2068 16.9186 10.289 16.8533 10.3543C16.788 10.4196 16.7058 10.4655 16.616 10.487C16.574 10.497 16.508 10.5 16.2 10.5H13.8C13.492 10.5 13.426 10.497 13.383 10.486C13.2932 10.4645 13.211 10.4186 13.1457 10.3533C13.0804 10.288 13.0345 10.2058 13.013 10.116C13.004 10.075 13 10.009 13 9.7V7.3C13 6.992 13.003 6.926 13.014 6.883C13.0355 6.79317 13.0814 6.71105 13.1467 6.64574C13.212 6.58043 13.2942 6.53448 13.384 6.513M6.75 12.5H9.25C9.479 12.5 9.676 12.5 9.85 12.541C10.1194 12.6054 10.3656 12.743 10.5616 12.9388C10.7575 13.1345 10.8954 13.3807 10.96 13.65C11 13.824 11 14.02 11 14.25V16.75C11 16.979 11 17.176 10.959 17.35C10.8946 17.6194 10.757 17.8657 10.5612 18.0616C10.3655 18.2575 10.1193 18.3954 9.85 18.46C9.676 18.5 9.48 18.5 9.25 18.5H6.75C6.521 18.5 6.324 18.5 6.15 18.459C5.88064 18.3946 5.63435 18.257 5.43843 18.0612C5.24251 17.8655 5.10461 17.6193 5.04 17.35C5 17.176 5 16.98 5 16.75V14.25C5 14.021 5 13.824 5.041 13.65C5.10536 13.3806 5.24305 13.1344 5.43879 12.9384C5.63453 12.7425 5.88069 12.6046 6.15 12.54C6.324 12.5 6.52 12.5 6.75 12.5ZM6.8 13.5C6.492 13.5 6.426 13.503 6.383 13.514C6.29317 13.5355 6.21105 13.5814 6.14574 13.6467C6.08043 13.712 6.03448 13.7942 6.013 13.884C6.004 13.925 6 13.991 6 14.3V16.7C6 17.008 6.003 17.074 6.014 17.117C6.03548 17.2068 6.08143 17.289 6.14674 17.3543C6.21205 17.4196 6.29417 17.4655 6.384 17.487C6.426 17.497 6.492 17.5 6.8 17.5H9.2C9.508 17.5 9.574 17.496 9.617 17.486C9.70683 17.4645 9.78895 17.4186 9.85426 17.3533C9.91957 17.288 9.96552 17.2058 9.987 17.116C9.997 17.074 10 17.008 10 16.7V14.3C10 13.992 9.997 13.926 9.986 13.883C9.96452 13.7932 9.91857 13.711 9.85326 13.6457C9.78795 13.5804 9.70583 13.5345 9.616 13.513C9.575 13.504 9.509 13.5 9.2 13.5H6.8ZM13.8 12.5H13.75C13.521 12.5 13.324 12.5 13.15 12.541C12.8806 12.6054 12.6344 12.743 12.4384 12.9388C12.2425 13.1345 12.1046 13.3807 12.04 13.65C12 13.824 12 14.02 12 14.25V16.75C12 16.979 12 17.176 12.041 17.35C12.1054 17.6194 12.243 17.8657 12.4388 18.0616C12.6345 18.2575 12.8807 18.3954 13.15 18.46C13.324 18.501 13.521 18.501 13.75 18.501H16.25C16.479 18.501 16.676 18.501 16.85 18.46C17.1192 18.3955 17.3653 18.2577 17.561 18.062C17.7567 17.8663 17.8945 17.6202 17.959 17.351C18 17.177 18 16.98 18 16.751V14.251C18 14.022 18 13.825 17.959 13.651C17.8948 13.3815 17.7572 13.135 17.5614 12.9388C17.3657 12.7427 17.1194 12.6047 16.85 12.54C16.676 12.5 16.48 12.5 16.25 12.5H13.8ZM13.383 13.514C13.426 13.504 13.493 13.5 13.8 13.5H16.2C16.508 13.5 16.574 13.503 16.617 13.514C16.7068 13.5355 16.789 13.5814 16.8543 13.6467C16.9196 13.712 16.9655 13.7942 16.987 13.884C16.997 13.926 17 13.992 17 14.3V16.7C17 17.008 16.996 17.074 16.986 17.117C16.9645 17.2068 16.9186 17.289 16.8533 17.3543C16.788 17.4196 16.7058 17.4655 16.616 17.487C16.574 17.497 16.508 17.5 16.2 17.5H13.8C13.492 17.5 13.426 17.496 13.383 17.486C13.2932 17.4645 13.211 17.4186 13.1457 17.3533C13.0804 17.288 13.0345 17.2058 13.013 17.116C13.004 17.075 13 17.009 13 16.7V14.3C13 13.992 13.003 13.926 13.014 13.883C13.0355 13.7932 13.0814 13.711 13.1467 13.6457C13.212 13.5804 13.2942 13.5345 13.384 13.513" fill="#1D2739"/>
</svg>
